<?xml version="1.0" encoding="UTF-8"?>
<!DOCTYPE svg PUBLIC "-//W3C//DTD SVG 1.1//EN" "http://www.w3.org/Graphics/SVG/1.1/DTD/svg11.dtd">
<!-- Creator: CorelDRAW X7 -->
<svg xmlns="http://www.w3.org/2000/svg" xml:space="preserve" width="6.56818in" height="8.5in" version="1.1" style="shape-rendering:geometricPrecision; text-rendering:geometricPrecision; image-rendering:optimizeQuality; fill-rule:evenodd; clip-rule:evenodd"
viewBox="0 0 6568 8500"
 xmlns:xlink="http://www.w3.org/1999/xlink">
 <defs>
  <style type="text/css">
   <![CDATA[
    .fil0 {fill:#42E695}
    .fil1 {fill:white;fill-rule:nonzero}
   ]]>
  </style>
 </defs>
 <g id="Layer_x0020_1">
  <metadata id="CorelCorpID_0Corel-Layer"/>
  <rect class="fil0" x="-3" y="4" width="6565" height="6565" rx="364" ry="364"/>
  <path class="fil1" d="M851 3248l652 -651c5,-5 11,-10 20,-17 8,-6 16,-10 25,-10 10,0 18,3 24,9 6,5 13,11 19,18l80 82c5,6 11,13 17,19 6,7 9,15 9,25 0,12 -1,20 -4,25 -4,5 -9,11 -17,19l-520 520 520 518c8,8 13,14 17,19 3,5 4,13 4,25 0,10 -3,18 -9,25 -6,6 -12,13 -17,19l-80 82c-6,7 -13,13 -19,18 -6,6 -14,9 -24,9 -9,0 -17,-3 -25,-10 -9,-6 -15,-12 -20,-17l-652 -650c-4,-4 -8,-10 -13,-17 -5,-7 -7,-15 -7,-23 0,-7 2,-14 7,-21 5,-6 9,-12 13,-16z"/>
  <path class="fil1" d="M5360 2597l652 651c4,4 8,10 13,16 4,7 7,14 7,21 0,8 -3,16 -7,23 -5,7 -9,13 -13,17l-652 650c-5,5 -12,11 -20,17 -8,7 -17,10 -25,10 -10,0 -19,-3 -25,-9 -6,-5 -12,-11 -19,-18l-79 -82c-6,-6 -11,-13 -17,-19 -6,-7 -9,-15 -9,-25 0,-12 1,-20 5,-25 3,-5 8,-11 15,-19l521 -518 -521 -520c-7,-8 -12,-14 -15,-19 -4,-5 -5,-13 -5,-25 0,-10 3,-18 9,-25 6,-6 11,-13 17,-19l79 -82c7,-7 13,-13 19,-18 6,-6 15,-9 25,-9 8,0 17,4 25,10 8,7 15,12 20,17z"/>
  <path class="fil1" d="M4049 4261l799 -1948c10,-24 21,-41 33,-49 12,-8 30,-13 53,-13l124 0c30,0 49,5 57,15 8,10 6,29 -5,58 -35,82 -74,175 -117,280 -44,105 -90,216 -138,333 -49,117 -98,237 -148,360 -50,123 -99,243 -147,360 -49,117 -95,229 -138,334 -44,105 -83,199 -117,281 -14,32 -37,49 -70,49l-146 0c-44,0 -57,-20 -40,-60z"/>
  <path class="fil1" d="M3666 3741c0,444 -110,789 -329,1036 -220,246 -512,369 -877,369 -171,0 -311,-20 -421,-60l0 -585c100,68 227,102 384,102 415,0 621,-320 621,-961l0 -2303 622 0 0 2402z"/>
 </g>
</svg>
